<?xml version="1.0" encoding="utf-8"?>
<!-- Generator: Adobe Illustrator 16.0.0, SVG Export Plug-In . SVG Version: 6.00 Build 0)  -->
<!DOCTYPE svg PUBLIC "-//W3C//DTD SVG 1.1//EN" "http://www.w3.org/Graphics/SVG/1.1/DTD/svg11.dtd">
<svg version="1.1" id="Calque_1" xmlns="http://www.w3.org/2000/svg" xmlns:xlink="http://www.w3.org/1999/xlink" x="0px" y="0px"
	 width="579.07px" height="347px" viewBox="0 0 579.07 347" enable-background="new 0 0 579.07 347" xml:space="preserve">
<g>
	<rect x="-88.425" fill="#FFFFFF" width="628" height="347"/>
	<g>
		<g>
			<path fill="#F7A600" d="M114.998,121.462v22.015c0,1.837,3.061,2.511,5.756,2.964v-24.893c-0.768,0.534-1.75,0.855-2.822,0.855
				C116.807,122.404,115.781,122.047,114.998,121.462z M117.934,120.565c1.867,0,3.383-1.644,3.383-3.671
				c0-2.028-1.516-5.965-3.383-5.965c-1.869,0-3.385,3.937-3.385,5.965C114.549,118.921,116.064,120.565,117.934,120.565z
				 M105.068,162.228v11.085h10.732c5.457,0,11.354-0.891,15.607-2.052v-13.502h2.682c-2.01-5.483-6.732-9.638-12.543-10.813h-6.762
				c-5.729,1.158-10.377,5.192-12.43,10.588h17.523C119.879,157.534,105.643,158.625,105.068,162.228z M142.941,176.884H93.137
				v10.211c0,0,31.779,0,41.59,0C144.545,187.095,142.941,176.884,142.941,176.884z M147.941,189.619h-62.35
				c0,3.225,3.389,4.554,3.389,4.554v45.732c0,0,0.485,13.007-8.505,21.26c6.455-2.129,12.851-4.826,18.21-7.731v-47.017
				c0-4.034,3.242-7.303,7.252-7.303c4.004,0,7.258,3.269,7.258,7.303v37.396c3.701-2.97,7.061-6.122,10.115-9.405v-27.99
				c0-4.034,3.248-7.303,7.262-7.303c4.01,0,7.258,3.269,7.258,7.303v7.813C142.398,205.94,145.643,197.517,147.941,189.619z"/>
			<path fill="#CE1531" d="M0,88.252v69.111c0,22.608,11.341,83.069,73.701,103.802c-9.236-8.297-8.504-21.26-8.504-21.26V209.3
				c-11.795,6.996-11.625,28.733-11.625,28.733c-25.654-48.655,12.74-58.897,26.096-66.681c13.895-8.1,9.395-20.767,9.395-20.767
				c0.02,9.733-7.174,15.331-21.258,16.276c-14.408,0.968-19.445,12.205-19.445,12.205s-10.465-5.831-8.887-16.936
				c0.789,0.387,16.086,6.046,20.477-9.101c0,0-9.52-8.182-16.1-6.954c-6.582,1.226-6.959,6.51-6.959,6.51
				s-13.936-5.162-4.08-15.081c-4.328,2.969-8.41,0.77-8.41,0.77s4.067-6.62,22.909-17.104c-0.168-0.321-0.249-0.783-0.178-1.165
				c0,0,1.297-10.701,26.286-14.936c21.064-3.57,44.059,5.672,47.9-16.819H0z M51.008,124.525c0,0,7.785,1.545,11.186-0.661
				c3.4-2.21-4.084-3.295-7.238-3.645L51.008,124.525z"/>
		</g>
		<g>
			<path fill="#CE1531" d="M320.407,177.341c-2.857,0-5.176,2.316-5.176,5.175s2.318,5.175,5.176,5.175s5.174-2.316,5.174-5.175
				S323.264,177.341,320.407,177.341z M207.941,194.659c-1.844-0.539-3.92-0.769-6.227-0.769c-10.76,0-18.137,8.07-18.137,21.598
				c0,13.143,7.068,20.982,19.291,20.982c6.455,0,11.145-1.152,14.449-2.997v-54.84h-9.377V194.659z M207.941,229.554
				c-1.076,0.691-2.613,0.922-4.842,0.922c-7.225,0-10.223-6.148-10.223-15.525c0-8.762,2.766-15.756,10.914-15.756
				c1.461,0,2.844,0.154,4.15,0.538V229.554z M315.694,235.702h9.377v-41.428h-9.377V235.702z M356.596,189.894l-4.73-9.714
				c-0.859-1.669-2.588-2.839-4.594-2.839c-1.947,0-3.646,1.096-4.529,2.686l8.703,9.867H356.596z M439.461,229.938
				c-6.84,0-10.756-3.844-11.523-11.529c10.701,0,21.736-1.27,25.588-3.689c0.385-13.912-5.611-21.214-16.602-21.214
				c-10.836,0-17.678,7.841-17.678,21.367c0,13.989,7.455,21.598,19.215,21.598c6.303,0,10.762-1.306,13.682-2.92l-2.229-5.919
				C447.686,228.785,444.227,229.938,439.461,229.938z M436.618,199.271c5.148,0,8.146,3.537,8.146,11.916
				c-4.641,1.777-11.811,2.457-17.045,2.457C427.489,203.729,431.161,199.271,436.618,199.271z M244.284,193.506
				c-10.836,0-17.676,7.841-17.676,21.367c0,13.989,7.453,21.598,19.213,21.598c6.303,0,10.762-1.306,13.682-2.92l-2.229-5.919
				c-2.229,1.153-5.688,2.307-10.455,2.307c-6.838,0-10.754-3.844-11.521-11.529c10.701,0,21.736-1.27,25.59-3.689
				C261.27,200.808,255.274,193.506,244.284,193.506z M235.079,213.644c-0.232-9.915,3.441-14.373,8.898-14.373
				c5.148,0,8.146,3.537,8.146,11.916C247.481,212.964,240.311,213.644,235.079,213.644z M352.598,193.506
				c-10.836,0-17.678,7.841-17.678,21.367c0,13.989,7.455,21.598,19.215,21.598c6.303,0,10.76-1.306,13.68-2.92l-2.229-5.919
				c-2.229,1.153-5.688,2.307-10.453,2.307c-6.84,0-10.754-3.844-11.523-11.529c10.701,0,21.738-1.27,25.59-3.689
				C369.584,200.808,363.588,193.506,352.598,193.506z M343.393,213.644c-0.23-9.915,3.441-14.373,8.896-14.373
				c5.15,0,8.148,3.537,8.148,11.916C355.795,212.964,348.625,213.644,343.393,213.644z M377.282,215.905
				c0,12.527,6.764,20.214,16.68,20.214c3.535,0,6.148-0.614,7.762-1.537l0.002,5.79c0,8.686-10.686,13.41-15.141,14.948
				l2.146,5.701c9.17-1.7,22.063-9.843,22.063-21.647v-42.838c-2.613-1.689-7.379-2.997-13.449-2.997
				C383.969,193.539,377.282,202.454,377.282,215.905z M401.723,229.356c-1.305,0.769-3.15,1.306-5.303,1.306
				c-6.918,0-9.838-5.149-9.838-15.218c0-10.377,2.998-16.371,10.299-16.371c2,0,3.613,0.229,4.842,0.922V229.356z M292.315,217.641
				v-39.007h-9.838v36.147c0,13.988,8.426,20.921,20.186,20.921h4.256v-6.532h-2.621
				C297.458,229.17,292.315,225.404,292.315,217.641z"/>
			<path fill="#CE1531" d="M266.743,115.758c-11.125,0-16.506,8.769-16.506,20.631c0,11.715,5.381,20.558,16.506,20.558
				c11.127,0,16.506-8.842,16.506-20.558C283.249,124.527,277.942,115.758,266.743,115.758z M266.743,150.832
				c-6.188,0-7.59-7.001-7.59-14.516c0-7.589,1.254-14.884,7.59-14.884c6.412,0,7.59,7.294,7.59,14.884
				C274.333,143.831,273.155,150.832,266.743,150.832z M306.977,142.136c-0.813,2.948-1.033,5.453-1.033,5.453h-0.146
				c0,0-0.148-2.579-0.957-5.453l-7-25.641h-9.58l12.969,39.715h8.547l12.746-39.715h-8.398L306.977,142.136z M199.738,104.78
				c-5.822,0-10.76,1.178-14.002,2.874v48.556h9.137v-20.042l1.99,0.147c15.105,1.105,21.369-6.558,21.369-15.768
				C218.232,111.558,212.777,104.78,199.738,104.78z M196.791,130.79l-1.918-0.147v-19.674c0.887-0.367,2.506-0.81,4.717-0.81
				c6.926,0,9.652,3.463,9.652,10.315C209.242,127.474,205.928,131.527,196.791,130.79z M226.797,118.633v37.577h8.988v-33.525
				c2.064-1.18,5.379-1.327,8.4-0.295l1.768-6.558C235.934,115.538,230.922,116.643,226.797,118.633z M365.516,115.758
				c-6.707,0-11.791,1.105-15.547,2.875v37.577h8.99v-33.673c1.693-0.663,3.24-1.104,6.188-1.104c5.674,0,7.146,3.39,7.146,6.631
				v28.147h8.988v-28.293C381.282,121.505,377.377,115.758,365.516,115.758z M408.047,150.463c-5.525,0-8.549-5.6-8.549-14.369
				c0-8.693,2.58-14.22,8.697-14.22c2.576,0,4.197,0.811,5.303,1.695l1.916-5.084c-1.473-1.253-4.346-2.727-9.209-2.727
				c-8.844,0-15.768,7.294-15.768,20.483c0,13.116,6.631,20.706,15.691,20.706c4.791,0,7.738-1.253,9.357-2.727l-2.061-5.526
				C412.174,149.727,410.479,150.463,408.047,150.463z M330.055,156.21h8.988v-39.715h-8.988V156.21z M334.536,100.299
				c-2.717,0-4.922,2.205-4.922,4.923s2.205,4.923,4.922,4.923c2.721,0,4.926-2.204,4.926-4.923S337.256,100.299,334.536,100.299z
				 M440.042,150.685c-6.558,0-10.313-3.685-11.048-11.052c10.26,0,20.84-1.217,24.532-3.537
				c0.369-13.337-5.38-20.336-15.917-20.336c-10.389,0-16.948,7.517-16.948,20.483c0,13.41,7.147,20.704,18.422,20.704
				c6.043,0,10.317-1.252,13.117-2.799l-2.136-5.674C447.927,149.579,444.612,150.685,440.042,150.685z M437.316,121.286
				c4.937,0,7.811,3.391,7.811,11.423c-4.449,1.704-11.323,2.355-16.342,2.355C428.564,125.559,432.083,121.286,437.316,121.286z"/>
		</g>
	</g>
</g>
</svg>
